<?xml version="1.0" encoding="UTF-8"?>
<!DOCTYPE svg PUBLIC "-//W3C//DTD SVG 1.1//EN" "http://www.w3.org/Graphics/SVG/1.1/DTD/svg11.dtd">
<svg xmlns="http://www.w3.org/2000/svg" version="1.1" width="731px" height="120px" style="shape-rendering:geometricPrecision; text-rendering:geometricPrecision; image-rendering:optimizeQuality; fill-rule:evenodd; clip-rule:evenodd" xmlns:xlink="http://www.w3.org/1999/xlink">
<g><path style="opacity:0.995" fill="#fefefd" d="M 176.5,-0.5 C 301.833,-0.5 427.167,-0.5 552.5,-0.5C 552.5,39.5 552.5,79.5 552.5,119.5C 427.167,119.5 301.833,119.5 176.5,119.5C 176.5,79.5 176.5,39.5 176.5,-0.5 Z"/></g>
<g><path style="opacity:1" fill="#ff8e10" d="M 217.5,0.5 C 246.362,-2.44008 264.862,9.89325 273,37.5C 275.113,62.4497 264.613,79.6164 241.5,89C 210.227,94.7095 190.727,82.2095 183,51.5C 182.005,26.003 193.505,9.00304 217.5,0.5 Z"/></g>
<g><path style="opacity:1" fill="#ff8f13" d="M 354.5,0.5 C 383.637,-1.53709 401.804,11.4629 409,39.5C 410.041,68.1237 396.541,85.2903 368.5,91C 348.263,92.1331 333.096,83.9665 323,66.5C 313.295,43.9568 317.795,24.7901 336.5,9C 342.208,5.31011 348.208,2.47678 354.5,0.5 Z"/></g>
<g><path style="opacity:1" fill="#ff8f11" d="M 491.5,0.5 C 520.762,-1.70931 538.928,11.2907 546,39.5C 547.045,68.1199 533.545,85.2865 505.5,91C 478.619,91.4796 462.119,78.6462 456,52.5C 454.185,25.7839 466.019,8.45055 491.5,0.5 Z"/></g>
<g><path style="opacity:1" fill="#ffd44c" d="M 218.5,3.5 C 240.478,0.90384 256.645,9.23717 267,28.5C 268.869,33.3453 270.035,38.3453 270.5,43.5C 256.496,43.6666 242.496,43.4999 228.5,43C 221.375,31.9175 214.375,20.7508 207.5,9.5C 207.977,8.52242 208.643,7.68909 209.5,7C 212.79,6.27508 215.79,5.10842 218.5,3.5 Z"/></g>
<g><path style="opacity:1" fill="#ffd44d" d="M 356.5,3.5 C 368.712,2.30176 379.712,5.30176 389.5,12.5C 381.141,23.2055 372.307,33.5389 363,43.5C 356.65,56.8641 350.317,70.1975 344,83.5C 326.521,72.786 319.188,57.1193 322,36.5C 327.235,18.7616 338.735,7.76164 356.5,3.5 Z"/></g>
<g><path style="opacity:1" fill="#ffd44d" d="M 498.5,3.5 C 498.5,16.8333 498.5,30.1667 498.5,43.5C 485.167,43.5 471.833,43.5 458.5,43.5C 461.496,19.8376 474.829,6.50425 498.5,3.5 Z"/></g>
<g><path style="opacity:1" fill="#ffd44d" d="M 542.5,39.5 C 542.5,40.8333 542.5,42.1667 542.5,43.5C 529.167,43.5 515.833,43.5 502.5,43.5C 502.5,30.1667 502.5,16.8333 502.5,3.5C 524.38,6.04881 537.714,18.0488 542.5,39.5 Z"/></g>
<g><path style="opacity:1" fill="#ffd44c" d="M 203.5,10.5 C 211.6,21.6176 218.933,33.2843 225.5,45.5C 219.767,57.9701 213.267,69.9701 206,81.5C 190.705,71.3225 184.039,56.9892 186,38.5C 188.564,27.0202 194.398,17.6869 203.5,10.5 Z"/></g>
<g><path style="opacity:1" fill="#ffd34c" d="M 391.5,15.5 C 395.099,17.2629 397.932,19.9295 400,23.5C 401.707,25.9088 402.54,28.5755 402.5,31.5C 392.056,34.4256 381.723,37.7589 371.5,41.5C 371.167,41.1667 370.833,40.8333 370.5,40.5C 377.746,32.3208 384.746,23.9875 391.5,15.5 Z"/></g>
<g><path style="opacity:1" fill="#ffd44d" d="M 400.5,34.5 C 402.144,34.2865 403.644,34.6198 405,35.5C 407.021,72.479 389.521,89.6457 352.5,87C 350.779,86.2607 349.113,85.4274 347.5,84.5C 353.36,72.2512 359.027,59.9179 364.5,47.5C 376.589,43.1395 388.589,38.8062 400.5,34.5 Z"/></g>
<g><path style="opacity:1" fill="#ffb931" d="M 498.5,3.5 C 499.496,16.9898 499.829,30.6565 499.5,44.5C 485.656,44.829 471.99,44.4957 458.5,43.5C 471.833,43.5 485.167,43.5 498.5,43.5C 498.5,30.1667 498.5,16.8333 498.5,3.5 Z"/></g>
<g><path style="opacity:1" fill="#ffb52e" d="M 542.5,39.5 C 543.451,40.9187 543.784,42.5853 543.5,44.5C 529.656,44.829 515.99,44.4957 502.5,43.5C 515.833,43.5 529.167,43.5 542.5,43.5C 542.5,42.1667 542.5,40.8333 542.5,39.5 Z"/></g>
<g><path style="opacity:1" fill="#ffd34c" d="M 228.5,46.5 C 242.5,46.5 256.5,46.5 270.5,46.5C 267.536,72.1315 253.203,85.7981 227.5,87.5C 220.926,88.1393 214.926,86.6393 209.5,83C 216.257,70.9843 222.59,58.8177 228.5,46.5 Z"/></g>
<g><path style="opacity:1" fill="#ffd34c" d="M 458.5,47.5 C 472.167,47.5 485.833,47.5 499.5,47.5C 499.5,60.8333 499.5,74.1667 499.5,87.5C 478.021,85.867 464.521,74.5337 459,53.5C 458.505,51.5273 458.338,49.5273 458.5,47.5 Z"/></g>
<g><path style="opacity:1" fill="#ffd44d" d="M 502.5,47.5 C 515.833,47.5 529.167,47.5 542.5,47.5C 540.133,71.8666 526.8,85.2 502.5,87.5C 502.5,74.1667 502.5,60.8333 502.5,47.5 Z"/></g>
<g><path style="opacity:1" fill="#495d6f" d="M 357.5,99.5 C 360.93,99.1065 364.096,99.7732 367,101.5C 367.913,104.352 367.08,106.519 364.5,108C 369.384,110.527 369.717,113.527 365.5,117C 362.518,117.498 359.518,117.665 356.5,117.5C 356.211,111.409 356.545,105.409 357.5,99.5 Z"/></g>
<g><path style="opacity:1" fill="#f5f6f7" d="M 359.5,102.5 C 361.977,102.051 363.977,102.717 365.5,104.5C 363.977,106.283 361.977,106.949 359.5,106.5C 359.5,105.167 359.5,103.833 359.5,102.5 Z"/></g>
<g><path style="opacity:1" fill="#43586a" d="M 499.5,99.5 C 507.886,99.7724 508.22,100.606 500.5,102C 496.5,106.333 496.5,110.667 500.5,115C 502.577,115.192 504.577,115.692 506.5,116.5C 496.921,118.419 493.088,114.419 495,104.5C 496.059,102.341 497.559,100.674 499.5,99.5 Z"/></g>
<g><path style="opacity:1" fill="#42576a" d="M 224.5,99.5 C 226.411,99.5743 227.578,100.574 228,102.5C 229.646,106.958 231.146,111.458 232.5,116C 232.167,116.5 231.833,117 231.5,117.5C 230.05,116.345 229.05,114.845 228.5,113C 224.237,111.461 221.57,112.794 220.5,117C 219.517,117.591 218.85,117.257 218.5,116C 220.213,110.357 222.213,104.857 224.5,99.5 Z"/></g>
<g><path style="opacity:1" fill="#edeff1" d="M 224.5,103.5 C 226.536,105.206 227.536,107.539 227.5,110.5C 226.167,110.5 224.833,110.5 223.5,110.5C 223.674,108.139 224.007,105.806 224.5,103.5 Z"/></g>
<g><path style="opacity:1" fill="#f8f9fa" d="M 359.5,109.5 C 364.667,108.492 366.334,110.325 364.5,115C 362.866,115.494 361.199,115.66 359.5,115.5C 359.5,113.5 359.5,111.5 359.5,109.5 Z"/></g>
</svg>
